<?xml version="1.0" encoding="UTF-8" standalone="no"?>
<!-- Created with Inkscape (http://www.inkscape.org/) -->

<svg
   width="600mm"
   height="600mm"
   viewBox="0 0 600 600"
   version="1.1"
   id="svg1"
   xmlns:inkscape="http://www.inkscape.org/namespaces/inkscape"
   xmlns:sodipodi="http://sodipodi.sourceforge.net/DTD/sodipodi-0.dtd"
   xmlns="http://www.w3.org/2000/svg"
   xmlns:svg="http://www.w3.org/2000/svg">
  <sodipodi:namedview
     id="namedview1"
     pagecolor="#ffffff"
     bordercolor="#000000"
     borderopacity="0.25"
     inkscape:showpageshadow="2"
     inkscape:pageopacity="0.0"
     inkscape:pagecheckerboard="0"
     inkscape:deskcolor="#d1d1d1"
     inkscape:document-units="px"
     showgrid="false">
    <inkscape:grid
       id="grid2"
       units="mm"
       originx="0"
       originy="0"
       spacingx="0.99999998"
       spacingy="1"
       empcolor="#0099e5"
       empopacity="0.30196078"
       color="#0099e5"
       opacity="0.14901961"
       empspacing="5"
       dotted="false"
       gridanglex="30"
       gridanglez="30"
       visible="false" />
  </sodipodi:namedview>
  <defs
     id="defs1">
    <clipPath
       clipPathUnits="userSpaceOnUse"
       id="clipPath1949">
      <path
         d="M 6.827,6.827 H 545.41 V 261.945 H 6.827 Z"
         transform="translate(-243.7309,-233.09991)"
         id="path1949" />
    </clipPath>
    <clipPath
       clipPathUnits="userSpaceOnUse"
       id="clipPath1946">
      <path
         d="M 6.827,6.827 H 545.41 V 261.945 H 6.827 Z"
         transform="translate(-241.3456,-233.34791)"
         id="path1946" />
    </clipPath>
    <clipPath
       clipPathUnits="userSpaceOnUse"
       id="clipPath1944">
      <path
         d="M 6.827,6.827 H 545.41 V 261.945 H 6.827 Z"
         transform="translate(-240.25131,-232.58331)"
         id="path1944" />
    </clipPath>
    <clipPath
       clipPathUnits="userSpaceOnUse"
       id="clipPath1940">
      <path
         d="M 6.827,6.827 H 545.41 V 261.945 H 6.827 Z"
         transform="translate(-237.20001,-233.25371)"
         id="path1940" />
    </clipPath>
    <clipPath
       clipPathUnits="userSpaceOnUse"
       id="clipPath1937">
      <path
         d="M 6.827,6.827 H 545.41 V 261.945 H 6.827 Z"
         transform="translate(-251.7469,-217.52271)"
         id="path1937" />
    </clipPath>
    <clipPath
       clipPathUnits="userSpaceOnUse"
       id="clipPath1935">
      <path
         d="M 6.827,6.827 H 545.41 V 261.945 H 6.827 Z"
         transform="translate(-227.8456,-217.52271)"
         id="path1935" />
    </clipPath>
    <clipPath
       clipPathUnits="userSpaceOnUse"
       id="clipPath1933">
      <path
         d="M 6.827,6.827 H 545.41 V 261.945 H 6.827 Z"
         transform="translate(-253.00131,-218.60141)"
         id="path1933" />
    </clipPath>
    <clipPath
       clipPathUnits="userSpaceOnUse"
       id="clipPath1931">
      <path
         d="M 6.827,6.827 H 545.41 V 261.945 H 6.827 Z"
         transform="translate(-226.5994,-218.60141)"
         id="path1931" />
    </clipPath>
    <clipPath
       clipPathUnits="userSpaceOnUse"
       id="clipPath1929">
      <path
         d="M 6.827,6.827 H 545.41 V 261.945 H 6.827 Z"
         transform="translate(-240.99441,-220.35381)"
         id="path1929" />
    </clipPath>
    <clipPath
       clipPathUnits="userSpaceOnUse"
       id="clipPath1927">
      <path
         d="M 6.827,6.827 H 545.41 V 261.945 H 6.827 Z"
         transform="translate(-244.0282,-217.87771)"
         id="path1927" />
    </clipPath>
    <clipPath
       clipPathUnits="userSpaceOnUse"
       id="clipPath1925">
      <path
         d="M 6.827,6.827 H 545.41 V 261.945 H 6.827 Z"
         transform="translate(-242.23761,-218.50081)"
         id="path1925" />
    </clipPath>
    <clipPath
       clipPathUnits="userSpaceOnUse"
       id="clipPath1923">
      <path
         d="M 6.827,6.827 H 545.41 V 261.945 H 6.827 Z"
         transform="translate(-245.64291,-220.02761)"
         id="path1923" />
    </clipPath>
    <clipPath
       clipPathUnits="userSpaceOnUse"
       id="clipPath1921">
      <path
         d="M 6.827,6.827 H 545.41 V 261.945 H 6.827 Z"
         transform="translate(-236.98611,-217.97731)"
         id="path1921" />
    </clipPath>
    <clipPath
       clipPathUnits="userSpaceOnUse"
       id="clipPath1919">
      <path
         d="M 6.827,6.827 H 545.41 V 261.945 H 6.827 Z"
         transform="translate(-238.26351,-218.53841)"
         id="path1919" />
    </clipPath>
    <clipPath
       clipPathUnits="userSpaceOnUse"
       id="clipPath1917">
      <path
         d="M 6.827,6.827 H 545.41 V 261.945 H 6.827 Z"
         transform="translate(-235.24351,-219.34651)"
         id="path1917" />
    </clipPath>
    <clipPath
       clipPathUnits="userSpaceOnUse"
       id="clipPath1915">
      <path
         d="M 6.827,6.827 H 545.41 V 261.945 H 6.827 Z"
         transform="translate(-223.0927,-219.04671)"
         id="path1915" />
    </clipPath>
    <clipPath
       clipPathUnits="userSpaceOnUse"
       id="clipPath1913">
      <path
         d="M 6.827,6.827 H 545.41 V 261.945 H 6.827 Z"
         transform="translate(-239.13081,-225.95001)"
         id="path1913" />
    </clipPath>
    <clipPath
       clipPathUnits="userSpaceOnUse"
       id="clipPath1911">
      <path
         d="M 6.827,6.827 H 545.41 V 261.945 H 6.827 Z"
         transform="translate(-233.3344,-228.93531)"
         id="path1911" />
    </clipPath>
    <clipPath
       clipPathUnits="userSpaceOnUse"
       id="clipPath1909">
      <path
         d="M 6.827,6.827 H 545.41 V 261.945 H 6.827 Z"
         transform="translate(-228.77191,-225.93241)"
         id="path1909" />
    </clipPath>
    <clipPath
       clipPathUnits="userSpaceOnUse"
       id="clipPath1907">
      <path
         d="M 6.827,6.827 H 545.41 V 261.945 H 6.827 Z"
         transform="translate(-262.4764,-217.52271)"
         id="path1907" />
    </clipPath>
    <clipPath
       clipPathUnits="userSpaceOnUse"
       id="clipPath1905">
      <path
         d="M 6.827,6.827 H 545.41 V 261.945 H 6.827 Z"
         transform="translate(-250.54231,-223.15651)"
         id="path1905" />
    </clipPath>
    <clipPath
       clipPathUnits="userSpaceOnUse"
       id="clipPath1901">
      <path
         d="M 6.827,6.827 H 545.41 V 261.945 H 6.827 Z"
         transform="translate(-245.55691,-227.61361)"
         id="path1901" />
    </clipPath>
    <clipPath
       clipPathUnits="userSpaceOnUse"
       id="clipPath1903">
      <path
         d="M 6.827,6.827 H 545.41 V 261.945 H 6.827 Z"
         transform="translate(-255.79771,-222.44711)"
         id="path1903" />
    </clipPath>
  </defs>
  <g
     inkscape:label="Layer 1"
     inkscape:groupmode="layer"
     id="layer1">
    <rect
       style="fill:#ffcc00;stroke-width:1.13997"
       id="rect1"
       width="683.45239"
       height="858.69263"
       x="-53.747272"
       y="-22.703587" />
    <g
       id="g2"
       transform="matrix(8.1,0,0,8.1,-1204.9805,-485.09284)">
      <path
         id="path1902"
         d="M 0,0 C -0.892,0.145 -1.337,0.211 -2.231,0.335 -2.236,1.193 -2.238,1.625 -2.242,2.483 -1.484,2.406 -1.107,2.363 -0.35,2.274 -0.26,2.15 -0.215,2.086 -0.125,1.959 -0.127,2.82 -0.129,3.246 -0.134,4.108 -0.226,4.005 -0.269,3.956 -0.359,3.856 -1.115,3.923 -1.492,3.954 -2.248,4.012 -2.255,4.883 -2.256,5.32 -2.261,6.192 -1.438,6.156 -1.026,6.137 -0.205,6.097 -0.113,5.985 -0.07,5.927 0.024,5.813 0.018,6.976 0.017,7.554 0.012,8.716 -0.073,8.608 -0.115,8.553 -0.2,8.447 c -1.59,0.007 -2.387,0.01 -3.975,0.015 0.008,-1.86 0.014,-2.793 0.023,-4.655 -0.007,0.015 -0.009,0.037 -0.009,0.037 l -0.385,-0.393 0.387,-0.45 c 0,0 0.005,0.023 0.012,0.036 0.006,-1.759 0.011,-2.64 0.019,-4.4 -0.041,-0.095 -0.062,-0.145 -0.106,-0.239 1.702,-0.255 2.549,-0.407 4.246,-0.755 0.09,-0.129 0.135,-0.192 0.224,-0.32 C 0.23,-1.512 0.23,-0.93 0.225,0.235 0.135,0.14 0.091,0.095 0,0"
         style="fill:#fffee6;fill-opacity:1;fill-rule:nonzero;stroke:none"
         transform="matrix(0.35277776,0,0,-0.35277776,191.44403,97.596537)"
         clip-path="url(#clipPath1903)" />
      <path
         id="path1900"
         d="m 0,0 c 0,0.347 -0.002,0.522 -0.002,0.869 -0.006,1.658 -0.741,2.449 -2.23,2.451 -1.214,0.002 -1.818,0.002 -3.03,0.002 0.092,-0.093 0.137,-0.139 0.227,-0.233 0,-1.597 0,-2.393 0.002,-3.991 l -0.002,0.004 -0.386,-0.385 0.386,-0.388 c 0,0 0.002,0 0.002,0.002 0,-1.595 0,-2.395 0.003,-3.991 -0.092,-0.092 -0.137,-0.139 -0.228,-0.23 1.217,-0.009 1.828,-0.026 3.047,-0.079 1.496,-0.067 2.231,0.658 2.225,2.315 0,0.348 -0.002,0.522 -0.002,0.871 -0.003,0.742 -0.257,1.167 -0.611,1.413 C -0.245,-1.148 0.002,-0.743 0,0 m -3.13,1.404 c 0.341,-0.002 0.512,-0.005 0.854,-0.008 0.201,-0.002 0.366,-0.182 0.366,-0.393 0.002,-0.514 0.005,-0.772 0.005,-1.287 -0.011,-0.213 -0.176,-0.373 -0.367,-0.37 -0.342,0.008 -0.512,0.009 -0.854,0.015 -0.002,0.819 -0.002,1.224 -0.004,2.043 m 1.233,-5.07 c 0.002,-0.213 -0.165,-0.383 -0.369,-0.377 -0.342,0.012 -0.512,0.018 -0.855,0.028 -10e-4,0.817 -10e-4,1.225 -0.003,2.041 0.342,-0.006 0.514,-0.01 0.854,-0.018 0.191,-0.006 0.356,-0.174 0.37,-0.389 10e-4,-0.515 10e-4,-0.771 0.003,-1.285"
         style="fill:#fffee6;fill-opacity:1;fill-rule:nonzero;stroke:none"
         transform="matrix(0.35277776,0,0,-0.35277776,187.8313,95.773911)"
         clip-path="url(#clipPath1901)" />
      <path
         id="path1904"
         d="M 0,0 C -0.896,0.099 -1.342,0.14 -2.241,0.215 -2.242,1.016 -2.245,1.415 -2.249,2.212 -1.491,2.165 -1.11,2.137 -0.352,2.078 -0.262,1.967 -0.218,1.91 -0.126,1.798 -0.13,2.588 -0.133,2.981 -0.135,3.771 -0.227,3.676 -0.27,3.629 -0.36,3.533 -1.118,3.578 -1.495,3.6 -2.256,3.635 -2.259,4.444 -2.262,4.85 -2.264,5.659 -1.441,5.638 -1.029,5.626 -0.205,5.6 -0.113,5.496 -0.068,5.444 0.026,5.34 0.018,6.409 0.016,6.94 0.009,8.006 -0.074,7.907 -0.118,7.857 -0.203,7.758 -1.793,7.763 -2.587,7.767 -4.179,7.769 -4.17,6.019 -4.168,5.145 -4.161,3.394 -4.166,3.405 -4.17,3.428 -4.17,3.428 l -0.388,-0.38 0.39,-0.412 c 0,0 0.005,0.02 0.009,0.034 0.006,-1.654 0.01,-2.483 0.015,-4.136 -0.042,-0.092 -0.063,-0.139 -0.105,-0.23 1.706,-0.141 2.558,-0.235 4.26,-0.47 0.091,-0.11 0.138,-0.17 0.228,-0.282 C 0.233,-1.38 0.23,-0.843 0.226,0.226 0.136,0.133 0.088,0.089 0,0"
         style="fill:#fffee6;fill-opacity:1;fill-rule:nonzero;stroke:none"
         transform="matrix(0.35277776,0,0,-0.35277776,189.59004,97.346276)"
         clip-path="url(#clipPath1905)" />
      <path
         id="path1906"
         d="m 0,0 c -0.088,0.152 -0.133,0.227 -0.223,0.38 -0.46,2.096 -0.689,3.114 -1.152,5.106 0.692,0.41 0.892,1.299 0.892,2.234 0,0.651 0,3.07 -0.003,3.724 0,2.083 -1.029,3.09 -2.281,3.098 -1.235,0.008 -1.851,0.01 -3.087,0.018 0.092,-0.112 0.137,-0.167 0.227,-0.279 0.007,-1.929 0.011,-4.983 0.018,-6.91 -0.048,-0.132 -0.372,-0.375 -0.372,-0.375 0,0 0.326,-0.315 0.377,-0.461 C -5.598,4.607 -5.596,3.644 -5.586,1.718 -5.675,1.627 -5.722,1.58 -5.81,1.488 -4.866,1.284 -4.396,1.175 -3.456,0.941 -3.549,1.083 -3.599,1.151 -3.692,1.29 -3.7,4.217 -3.708,9.232 -3.719,12.157 c 0.385,-0.022 0.574,-0.031 0.956,-0.054 0.213,-0.013 0.38,-0.245 0.38,-0.52 0,-0.645 0.004,-3.059 0.004,-3.704 0,-0.271 -0.165,-0.475 -0.377,-0.451 C -2.993,7.455 -3.111,7.469 -3.348,7.496 -2.893,4.927 -2.666,3.613 -2.215,0.921 -2.308,0.825 -2.355,0.779 -2.447,0.684 -1.469,0.426 -0.977,0.29 0,0"
         style="fill:#fffee6;fill-opacity:1;fill-rule:nonzero;stroke:none"
         transform="matrix(0.35277776,0,0,-0.35277776,193.80013,99.333756)"
         clip-path="url(#clipPath1907)" />
      <path
         id="path1908"
         d="m 0,0 c 0,0 -0.355,0.27 -0.373,0.38 0.005,0.818 0.006,1.227 0.011,2.048 0.007,1.37 -0.762,2.685 -2.495,2.681 C -4.643,5.107 -5.416,3.672 -5.423,2.182 -5.427,1.289 -5.429,0.844 -5.431,-0.047 c -0.016,-0.125 -0.374,-0.487 -0.374,-0.487 0,0 0.356,-0.281 0.37,-0.402 -0.004,-0.886 -0.006,-1.328 -0.007,-2.216 -0.007,-1.488 0.87,-2.734 2.534,-2.434 1.696,0.307 2.514,1.744 2.524,3.115 0.002,0.813 0.003,1.22 0.01,2.035 C -0.359,-0.325 0,0 0,0 m -2.172,-2.683 c -0.007,-0.921 -1.492,-1.157 -1.488,-0.199 0.011,2.064 0.015,3.096 0.025,5.161 0.002,0.827 1.489,0.909 1.487,0.071 -0.011,-2.013 -0.014,-3.019 -0.024,-5.033"
         style="fill:#fffee6;fill-opacity:1;fill-rule:nonzero;stroke:none"
         transform="matrix(0.35277776,0,0,-0.35277776,181.90993,96.367001)"
         clip-path="url(#clipPath1909)" />
      <path
         id="path1910"
         d="M 0,0 C 0.002,0.797 0.002,1.194 0.007,1.99 -1.757,1.988 -2.639,1.983 -4.404,1.978 -4.408,1.143 -4.41,0.725 -4.414,-0.111 c 0.51,0.015 0.764,0.024 1.272,0.039 -0.006,-0.988 -0.008,-1.482 -0.011,-2.471 -0.007,0.019 -0.013,0.044 -0.013,0.044 l -0.387,-0.437 0.384,-0.383 c 0,0 0.004,0.026 0.011,0.043 -0.008,-1.711 -0.011,-2.565 -0.019,-4.279 -0.139,-0.114 -0.208,-0.171 -0.347,-0.287 0.991,0.124 1.489,0.181 2.483,0.277 -0.089,0.087 -0.135,0.132 -0.225,0.219 0.006,1.663 0.01,2.494 0.017,4.158 0.016,0.11 0.38,0.406 0.38,0.406 0,0 -0.36,0.264 -0.379,0.37 0.005,0.955 0.007,1.433 0.011,2.388 C -0.742,-0.014 -0.496,-0.008 0,0"
         style="fill:#fffee6;fill-opacity:1;fill-rule:nonzero;stroke:none"
         transform="matrix(0.35277776,0,0,-0.35277776,183.51948,95.307644)"
         clip-path="url(#clipPath1911)" />
      <path
         id="path1912"
         d="m 0,0 c 0.015,0.103 0.382,0.38 0.382,0.38 0,0 -0.367,0.274 -0.382,0.377 0,1.597 0,2.395 0.001,3.994 H 0.015 C 0.104,4.841 0.15,4.889 0.24,4.981 H -2.115 C -2.029,4.893 -1.988,4.849 -1.902,4.761 -1.904,3.261 -1.904,2.511 -1.906,1.013 -2.381,1.006 -2.619,1.001 -3.09,0.992 c 0.003,1.503 0.005,2.253 0.009,3.755 0.09,0.092 0.135,0.14 0.224,0.232 -0.94,0 -1.414,0 -2.356,-0.001 C -5.121,4.887 -5.078,4.841 -4.988,4.752 -4.992,3.109 -4.994,2.287 -5,0.642 -5.038,0.526 -5.379,0.261 -5.379,0.261 c 0,0 0.338,-0.24 0.377,-0.352 -0.007,-1.642 -0.009,-2.459 -0.013,-4.098 -0.092,-0.103 -0.139,-0.154 -0.229,-0.256 0.946,0.073 1.42,0.1 2.369,0.144 -0.092,0.091 -0.136,0.134 -0.227,0.222 0.004,1.485 0.004,2.23 0.007,3.712 0.474,0.016 0.712,0.02 1.184,0.03 -0.002,-1.477 -0.002,-2.217 -0.003,-3.694 -0.093,-0.097 -0.138,-0.144 -0.231,-0.24 0.952,0.033 1.424,0.042 2.37,0.047 -0.09,0.092 -0.137,0.139 -0.227,0.232 C 0,-2.395 0,-1.595 0,0"
         style="fill:#fffee6;fill-opacity:1;fill-rule:nonzero;stroke:none"
         transform="matrix(0.35277776,0,0,-0.35277776,185.56432,96.360792)"
         clip-path="url(#clipPath1913)" />
      <path
         id="path1914"
         d="m 0,0 c -0.091,0.091 -0.134,0.136 -0.225,0.228 -0.454,1.648 -0.681,2.492 -1.137,4.215 0.698,0.586 0.903,1.424 0.904,2.26 0.002,0.59 0.005,2.974 0.005,3.561 0.008,1.871 -1.017,2.764 -2.27,2.756 -1.235,-0.006 -1.854,-0.012 -3.086,-0.018 0.089,-0.126 0.135,-0.187 0.224,-0.311 0,-2.135 0,-5.292 -0.002,-7.427 V 5.265 L -5.971,4.691 -5.587,4.235 c 0,-2.133 -0.002,-3.201 -0.002,-5.335 -0.09,-0.15 -0.134,-0.225 -0.222,-0.377 0.934,0.277 1.403,0.406 2.343,0.65 -0.094,0.094 -0.142,0.143 -0.236,0.238 0.009,3.016 0.011,8.123 0.017,11.138 0.386,0.024 0.576,0.036 0.958,0.056 0.21,0.011 0.377,-0.195 0.375,-0.459 0,-0.63 -10e-4,-3.036 -0.004,-3.665 0,-0.264 -0.166,-0.498 -0.377,-0.522 C -2.975,5.932 -3.094,5.918 -3.331,5.891 -2.887,3.388 -2.666,2.165 -2.224,-0.223 -2.318,-0.361 -2.367,-0.431 -2.462,-0.572 -1.479,-0.327 -0.987,-0.211 0,0"
         style="fill:#fffee6;fill-opacity:1;fill-rule:nonzero;stroke:none"
         transform="matrix(0.35277776,0,0,-0.35277776,179.90643,98.796122)"
         clip-path="url(#clipPath1915)" />
      <path
         id="path1916"
         d="M 0,0 V 0.213 C 0,0.619 -0.175,0.798 -0.529,0.763 -0.819,0.733 -0.961,0.717 -1.25,0.684 -1.227,0.665 -1.217,0.653 -1.195,0.633 v -1.002 c 0,-0.024 -0.093,-0.106 -0.093,-0.106 0,0 0.093,-0.062 0.093,-0.087 v -0.999 c -0.022,-0.025 -0.032,-0.037 -0.055,-0.064 0.289,0.034 0.431,0.049 0.721,0.08 C -0.175,-1.51 0,-1.303 0,-0.895 v 0.212 c 0,0.181 -0.059,0.279 -0.144,0.326 C -0.059,-0.289 0,-0.182 0,0 m -0.745,0.262 c 0.083,0.01 0.122,0.014 0.205,0.021 0.047,0.004 0.088,-0.035 0.088,-0.09 0,-0.126 -0.002,-0.19 -0.002,-0.318 -0.003,-0.053 -0.042,-0.099 -0.086,-0.1 -0.083,-0.011 -0.122,-0.014 -0.205,-0.024 z m 0.291,-1.226 c 0,-0.053 -0.039,-0.101 -0.086,-0.104 -0.081,-0.011 -0.122,-0.014 -0.205,-0.022 v 0.508 c 0.083,0.011 0.124,0.014 0.205,0.022 0.044,0.003 0.083,-0.031 0.086,-0.086 z"
         style="fill:#fffee6;fill-opacity:1;fill-rule:nonzero;stroke:none"
         transform="matrix(0.35277776,0,0,-0.35277776,184.19296,98.69036)"
         clip-path="url(#clipPath1917)" />
      <path
         id="path1918"
         d="m 0,0 c -0.195,-0.006 -0.296,-0.01 -0.489,-0.02 0,0.193 -0.002,0.288 -0.002,0.48 0.165,0.007 0.245,0.008 0.407,0.013 0.023,-0.024 0.035,-0.035 0.055,-0.059 V 0.873 C -0.049,0.85 -0.061,0.836 -0.084,0.812 -0.246,0.808 -0.326,0.804 -0.489,0.798 c 0,0.193 -0.002,0.292 -0.002,0.482 0.18,0.01 0.27,0.012 0.449,0.017 0.021,-0.02 0.032,-0.033 0.053,-0.055 V 1.861 C -0.007,1.837 -0.019,1.825 -0.04,1.802 -0.401,1.79 -0.583,1.783 -0.946,1.766 v -1.06 c -0.002,-0.024 -0.089,-0.1 -0.089,-0.1 0,0 0.087,-0.064 0.089,-0.089 v -1 c -0.01,-0.024 -0.013,-0.038 -0.025,-0.061 0.388,0.022 0.582,0.029 0.969,0.04 0.022,-0.022 0.034,-0.035 0.056,-0.057 V 0.061 C 0.032,0.035 0.02,0.023 0,0"
         style="fill:#fffee6;fill-opacity:1;fill-rule:nonzero;stroke:none"
         transform="matrix(0.35277776,0,0,-0.35277776,185.25835,98.975439)"
         clip-path="url(#clipPath1919)" />
      <path
         id="path1920"
         d="m 0,0 c -0.023,0.022 -0.031,0.035 -0.053,0.057 -0.112,0.36 -0.167,0.539 -0.278,0.899 0.166,0.11 0.215,0.287 0.215,0.461 v 0.307 c 0,0.391 -0.244,0.563 -0.541,0.546 C -0.953,2.246 -1.099,2.235 -1.395,2.213 -1.373,2.189 -1.361,2.177 -1.34,2.157 V 1.158 c 0,-0.025 -0.092,-0.102 -0.092,-0.102 0,0 0.092,-0.065 0.092,-0.091 v -0.998 c -0.021,-0.025 -0.033,-0.038 -0.055,-0.063 0.227,0.018 0.337,0.028 0.564,0.044 -0.021,0.021 -0.032,0.031 -0.056,0.054 v 1.767 c 0.092,0.009 0.136,0.012 0.23,0.016 0.048,0.004 0.089,-0.036 0.089,-0.089 V 1.379 C -0.568,1.328 -0.609,1.28 -0.657,1.275 -0.716,1.273 -0.745,1.271 -0.801,1.267 -0.693,0.772 -0.641,0.523 -0.533,0.026 -0.556,0.002 -0.566,-0.011 -0.588,-0.035 -0.354,-0.018 -0.237,-0.011 0,0"
         style="fill:#fffee6;fill-opacity:1;fill-rule:nonzero;stroke:none"
         transform="matrix(0.35277776,0,0,-0.35277776,184.80772,99.173383)"
         clip-path="url(#clipPath1921)" />
      <path
         id="path1922"
         d="M 0,0 C -0.021,-0.021 -0.032,-0.032 -0.054,-0.05 -0.255,-0.571 -0.356,-0.829 -0.56,-1.352 v -0.839 c 0.023,-0.026 0.033,-0.039 0.053,-0.065 -0.223,0.023 -0.339,0.035 -0.563,0.056 0.022,0.022 0.032,0.033 0.056,0.054 v 0.84 c -0.204,0.562 -0.307,0.844 -0.511,1.401 -0.019,0.027 -0.031,0.04 -0.052,0.065 0.242,-0.023 0.363,-0.033 0.606,-0.056 -0.023,-0.021 -0.033,-0.032 -0.053,-0.054 0.093,-0.316 0.141,-0.475 0.234,-0.792 0.096,0.298 0.143,0.448 0.24,0.745 C -0.573,0.028 -0.583,0.042 -0.604,0.068 -0.363,0.042 -0.242,0.028 0,0"
         style="fill:#fffee6;fill-opacity:1;fill-rule:nonzero;stroke:none"
         transform="matrix(0.35277776,0,0,-0.35277776,187.86164,98.450083)"
         clip-path="url(#clipPath1923)" />
      <path
         id="path1924"
         d="M 0,0 C -0.194,0.01 -0.295,0.014 -0.491,0.021 V 0.499 C -0.325,0.493 -0.245,0.488 -0.082,0.483 -0.059,0.455 -0.048,0.443 -0.028,0.42 V 0.878 C -0.048,0.855 -0.059,0.844 -0.082,0.823 -0.245,0.828 -0.325,0.834 -0.491,0.838 V 1.323 C -0.311,1.317 -0.222,1.312 -0.042,1.305 -0.019,1.279 -0.01,1.268 0.012,1.243 v 0.62 C -0.007,1.841 -0.019,1.829 -0.039,1.806 -0.401,1.823 -0.581,1.831 -0.944,1.843 V 0.784 c -0.002,-0.025 -0.09,-0.093 -0.09,-0.093 0,0 0.088,-0.07 0.09,-0.098 v -1.002 c -0.011,-0.023 -0.015,-0.032 -0.026,-0.056 0.389,-0.011 0.582,-0.018 0.97,-0.038 0.023,-0.022 0.032,-0.034 0.054,-0.061 0,0.249 0.002,0.372 0.002,0.62 C 0.032,0.034 0.023,0.023 0,0"
         style="fill:#fffee6;fill-opacity:1;fill-rule:nonzero;stroke:none"
         transform="matrix(0.35277776,0,0,-0.35277776,186.66033,98.988704)"
         clip-path="url(#clipPath1925)" />
      <path
         id="path1926"
         d="m 0,0 c -0.021,0.028 -0.031,0.04 -0.054,0.065 -0.111,0.376 -0.165,0.564 -0.275,0.938 0.167,0.087 0.213,0.257 0.213,0.432 v 0.306 c 0,0.39 -0.244,0.598 -0.542,0.619 C -0.952,2.381 -1.1,2.389 -1.396,2.407 -1.372,2.381 -1.363,2.372 -1.342,2.346 V 1.344 C -1.343,1.321 -1.431,1.256 -1.431,1.256 c 0,0 0.088,-0.073 0.092,-0.1 0,-0.4 -0.003,-0.6 -0.003,-0.999 C -1.363,0.134 -1.372,0.122 -1.396,0.1 -1.169,0.088 -1.056,0.079 -0.829,0.065 -0.854,0.089 -0.864,0.102 -0.888,0.128 v 1.767 c 0.092,-0.007 0.138,-0.01 0.23,-0.016 0.05,-0.001 0.09,-0.049 0.09,-0.105 V 1.459 c 0,-0.052 -0.04,-0.093 -0.09,-0.09 C -0.716,1.373 -0.743,1.375 -0.8,1.379 -0.692,0.866 -0.64,0.613 -0.531,0.1 -0.554,0.079 -0.564,0.069 -0.587,0.047 -0.354,0.032 -0.234,0.021 0,0"
         style="fill:#fffee6;fill-opacity:1;fill-rule:nonzero;stroke:none"
         transform="matrix(0.35277776,0,0,-0.35277776,187.29201,99.20852)"
         clip-path="url(#clipPath1927)" />
      <path
         id="path1928"
         d="m 0,0 c -0.229,0.008 -0.343,0.01 -0.571,0.012 0.019,-0.024 0.03,-0.036 0.053,-0.059 -0.087,-0.611 -0.131,-0.917 -0.218,-1.524 h -0.005 c -0.09,0.612 -0.135,0.916 -0.225,1.528 0.023,0.023 0.034,0.033 0.058,0.057 h -0.004 c -0.225,0.002 -0.342,0.002 -0.566,0 h -0.006 c 0.02,-0.024 0.032,-0.034 0.054,-0.057 -0.088,-0.612 -0.132,-0.916 -0.22,-1.528 h -0.006 c -0.09,0.607 -0.134,0.913 -0.22,1.524 0.023,0.023 0.033,0.035 0.056,0.059 C -2.049,0.008 -2.162,0.008 -2.389,0 c 0.021,-0.022 0.03,-0.033 0.05,-0.055 0.073,-0.402 0.109,-0.6 0.18,-1.002 0,-0.025 -0.076,-0.096 -0.076,-0.096 0,0 0.102,-0.071 0.107,-0.093 0.07,-0.398 0.106,-0.599 0.177,-0.998 -0.023,-0.023 -0.034,-0.035 -0.056,-0.06 0.26,0.005 0.387,0.007 0.645,0.007 -0.021,0.024 -0.031,0.035 -0.052,0.059 0.087,0.489 0.131,0.73 0.217,1.219 0.089,-0.489 0.134,-0.73 0.222,-1.219 -0.022,-0.024 -0.033,-0.035 -0.056,-0.059 0.259,0 0.388,-0.002 0.647,-0.007 -0.021,0.025 -0.029,0.037 -0.052,0.06 0.07,0.399 0.103,0.6 0.172,0.998 0.006,0.024 0.106,0.093 0.106,0.093 0,0 -0.072,0.068 -0.072,0.096 0.065,0.399 0.102,0.6 0.17,1.002 C -0.036,-0.033 -0.024,-0.022 0,0"
         style="fill:#fffee6;fill-opacity:1;fill-rule:nonzero;stroke:none"
         transform="matrix(0.35277776,0,0,-0.35277776,186.22176,98.335007)"
         clip-path="url(#clipPath1929)" />
      <path
         id="path1930"
         d="m 0,0 c 0.295,0.169 0.602,0.332 0.929,0.491 -0.003,-0.005 0.473,0.46 0.473,0.46 0.055,0.358 0.073,0.701 0.102,0.905 -1.947,-0.555 -6.015,-1.607 -6.11,-3.877 -0.015,-0.335 0,-1.18 0.213,-1.478 0.768,1.967 3.346,3.383 5.341,4.268 C 0.547,0.558 0.176,0.337 -0.201,0.126 -0.346,-0.051 -0.445,-0.31 -0.494,-0.366 -0.383,-0.674 -0.304,-0.97 -0.289,-1.375 1.778,0.244 4.102,1.469 6.767,1.787 4.385,1.792 2.145,1 0,0"
         style="fill:#fffee6;fill-opacity:1;fill-rule:nonzero;stroke:none"
         transform="matrix(0.35277776,0,0,-0.35277776,181.14352,98.953214)"
         clip-path="url(#clipPath1931)" />
      <path
         id="path1932"
         d="m 0,0 c -0.294,0.169 -0.604,0.332 -0.931,0.491 0.004,-0.005 -0.473,0.46 -0.473,0.46 -0.053,0.358 -0.072,0.701 -0.101,0.905 1.949,-0.555 6.013,-1.607 6.111,-3.877 0.015,-0.335 0,-1.18 -0.214,-1.478 C 3.624,-1.532 1.046,-0.116 -0.95,0.769 -0.548,0.558 -0.177,0.337 0.198,0.126 0.346,-0.051 0.444,-0.31 0.491,-0.366 0.378,-0.674 0.304,-0.97 0.287,-1.375 -1.779,0.244 -4.104,1.469 -6.767,1.787 -4.387,1.792 -2.147,1 0,0"
         style="fill:#fffee6;fill-opacity:1;fill-rule:nonzero;stroke:none"
         transform="matrix(0.35277776,0,0,-0.35277776,190.45752,98.953214)"
         clip-path="url(#clipPath1933)" />
      <path
         id="path1934"
         d="m 0,0 c 0,0 1.446,1.145 2.913,1.611 0,0 -1.648,-0.927 -1.993,-1.652 C 0.575,-0.767 0,0 0,0"
         style="fill:#fffee6;fill-opacity:1;fill-rule:nonzero;stroke:none"
         transform="matrix(0.35277776,0,0,-0.35277776,181.58315,99.333756)"
         clip-path="url(#clipPath1935)" />
      <path
         id="path1936"
         d="m 0,0 c 0,0 -1.443,1.145 -2.91,1.611 0,0 1.646,-0.927 1.991,-1.652 C -0.575,-0.767 0,0 0,0"
         style="fill:#fffee6;fill-opacity:1;fill-rule:nonzero;stroke:none"
         transform="matrix(0.35277776,0,0,-0.35277776,190.015,99.333756)"
         clip-path="url(#clipPath1937)" />
      <path
         id="path1938"
         d="m 184.30801,93.666663 v 0.408869 h 0.17533 v -0.05856 h -0.11642 v -0.119944 h 0.10125 v -0.05468 h -0.10125 v -0.12065 h 0.11642 v -0.05503 z"
         style="fill:#fffee6;fill-opacity:1;fill-rule:nonzero;stroke:none;stroke-width:0.352778" />
      <path
         id="path1939"
         d="m 0,0 h -0.167 v 0.037 c 0,0.038 -0.008,0.071 -0.025,0.099 -0.019,0.028 -0.051,0.041 -0.092,0.041 -0.024,0 -0.042,-0.003 -0.056,-0.012 C -0.355,0.155 -0.365,0.146 -0.373,0.13 -0.381,0.118 -0.388,0.1 -0.39,0.082 -0.395,0.065 -0.396,0.046 -0.396,0.028 c 0,-0.024 0.001,-0.042 0.001,-0.058 0.003,-0.017 0.007,-0.03 0.014,-0.04 0.006,-0.012 0.016,-0.023 0.028,-0.031 0.013,-0.01 0.029,-0.018 0.051,-0.025 l 0.129,-0.053 c 0.034,-0.012 0.066,-0.03 0.089,-0.05 0.021,-0.018 0.04,-0.04 0.052,-0.065 0.012,-0.026 0.021,-0.055 0.025,-0.089 C -0.003,-0.416 0,-0.454 0,-0.495 0,-0.544 -0.005,-0.591 -0.015,-0.63 c -0.011,-0.042 -0.027,-0.078 -0.048,-0.107 -0.021,-0.031 -0.052,-0.056 -0.09,-0.073 -0.038,-0.016 -0.081,-0.026 -0.135,-0.026 -0.04,0 -0.075,0.008 -0.113,0.022 -0.033,0.013 -0.062,0.033 -0.088,0.057 -0.025,0.025 -0.045,0.053 -0.059,0.087 -0.015,0.033 -0.021,0.071 -0.021,0.11 v 0.061 h 0.166 V -0.55 c 0,-0.03 0.008,-0.059 0.025,-0.083 0.019,-0.024 0.048,-0.037 0.09,-0.037 0.029,0 0.051,0.005 0.066,0.013 0.018,0.007 0.03,0.019 0.037,0.034 0.008,0.014 0.014,0.032 0.014,0.053 0.004,0.024 0.004,0.048 0.004,0.073 0,0.031 0,0.055 -0.004,0.075 0,0.019 -0.004,0.035 -0.014,0.047 -0.006,0.012 -0.015,0.022 -0.029,0.029 -0.011,0.007 -0.029,0.015 -0.049,0.024 l -0.118,0.05 c -0.072,0.029 -0.12,0.068 -0.144,0.116 -0.026,0.05 -0.038,0.109 -0.038,0.181 0,0.045 0.005,0.085 0.018,0.124 0.014,0.039 0.031,0.074 0.052,0.101 0.025,0.03 0.055,0.05 0.09,0.067 0.038,0.018 0.077,0.028 0.124,0.028 0.042,0 0.081,-0.008 0.115,-0.024 C -0.13,0.305 -0.101,0.286 -0.076,0.26 -0.05,0.235 -0.032,0.206 -0.02,0.175 -0.007,0.146 0,0.113 0,0.081 Z"
         style="fill:#fffee6;fill-opacity:1;fill-rule:nonzero;stroke:none"
         transform="matrix(0.35277776,0,0,-0.35277776,184.88318,93.784208)"
         clip-path="url(#clipPath1940)" />
      <path
         id="path1941"
         d="m 185.07001,93.666028 v 0.05574 h 0.0674 v 0.353836 h 0.0586 v -0.353836 h 0.0681 v -0.05574 z"
         style="fill:#fffee6;fill-opacity:1;fill-rule:nonzero;stroke:none;stroke-width:0.352778" />
      <path
         id="path1942"
         d="m 185.40564,94.075501 h 0.0589 v -0.05856 h -0.0589 z"
         style="fill:#fffee6;fill-opacity:1;fill-rule:nonzero;stroke:none;stroke-width:0.352778" />
      <path
         id="path1943"
         d="m 0,0 0.298,0.566 c 0.017,0.028 0.022,0.053 0.026,0.075 0.003,0.019 0.003,0.047 0.003,0.077 0,0.015 0,0.031 -0.003,0.047 0,0.014 -0.004,0.029 -0.007,0.041 C 0.313,0.818 0.304,0.828 0.294,0.835 0.281,0.845 0.266,0.848 0.246,0.848 0.221,0.848 0.202,0.84 0.186,0.827 0.174,0.812 0.165,0.79 0.165,0.765 V 0.67 H 0 V 0.761 C 0,0.796 0.007,0.828 0.019,0.858 0.032,0.89 0.047,0.915 0.07,0.939 0.094,0.962 0.122,0.979 0.151,0.994 0.181,1.007 0.213,1.015 0.249,1.015 0.291,1.015 0.33,1.005 0.359,0.99 0.393,0.975 0.416,0.952 0.435,0.925 0.456,0.899 0.471,0.867 0.482,0.833 0.489,0.798 0.494,0.761 0.494,0.722 0.494,0.694 0.492,0.67 0.492,0.651 0.492,0.632 0.487,0.615 0.485,0.596 0.482,0.58 0.477,0.561 0.469,0.544 0.462,0.528 0.451,0.506 0.438,0.481 L 0.194,0.011 h 0.3 V -0.156 H 0 Z"
         style="fill:#fffee6;fill-opacity:1;fill-rule:nonzero;stroke:none"
         transform="matrix(0.35277776,0,0,-0.35277776,185.95961,94.020711)"
         clip-path="url(#clipPath1944)" />
      <path
         id="path1945"
         d="M 0,0 C 0,0.04 0.006,0.073 0.02,0.104 0.034,0.134 0.05,0.16 0.075,0.184 0.098,0.205 0.123,0.222 0.152,0.231 0.183,0.245 0.215,0.25 0.248,0.25 0.279,0.25 0.311,0.245 0.339,0.231 0.371,0.222 0.397,0.205 0.418,0.184 0.441,0.16 0.46,0.134 0.473,0.104 0.487,0.073 0.494,0.04 0.494,0 V -0.682 C 0.494,-0.72 0.487,-0.754 0.473,-0.784 0.46,-0.816 0.441,-0.842 0.418,-0.862 0.397,-0.886 0.371,-0.901 0.339,-0.913 0.311,-0.924 0.279,-0.93 0.248,-0.93 0.215,-0.93 0.183,-0.924 0.152,-0.913 0.123,-0.901 0.098,-0.886 0.075,-0.862 0.05,-0.842 0.034,-0.816 0.02,-0.784 0.006,-0.754 0,-0.72 0,-0.682 Z m 0.164,-0.682 c 0,-0.022 0.008,-0.042 0.023,-0.059 0.017,-0.014 0.036,-0.024 0.061,-0.024 0.023,0 0.042,0.01 0.056,0.024 0.016,0.017 0.025,0.037 0.025,0.059 V 0 C 0.329,0.024 0.32,0.043 0.304,0.059 0.29,0.075 0.271,0.083 0.248,0.083 0.223,0.083 0.204,0.075 0.187,0.059 0.172,0.043 0.164,0.024 0.164,0 Z"
         style="fill:#fffee6;fill-opacity:1;fill-rule:nonzero;stroke:none"
         transform="matrix(0.35277776,0,0,-0.35277776,186.34565,93.750977)"
         clip-path="url(#clipPath1946)" />
      <path
         id="path1947"
         d="m 186.80038,93.666663 -0.0589,0.04304 v 0.06209 l 0.0589,-0.04304 v 0.34678 h 0.0589 v -0.408869 z"
         style="fill:#fffee6;fill-opacity:1;fill-rule:nonzero;stroke:none;stroke-width:0.352778" />
      <path
         id="path1948"
         d="M 0,0 C 0.048,0 0.083,0.005 0.102,0.018 0.123,0.029 0.131,0.057 0.131,0.101 V 0.25 C 0.131,0.274 0.123,0.292 0.11,0.309 0.094,0.323 0.072,0.331 0.048,0.331 0.02,0.331 0,0.321 -0.013,0.303 -0.025,0.284 -0.032,0.267 -0.032,0.25 V 0.155 h -0.166 v 0.096 c 0,0.033 0.007,0.066 0.021,0.096 0.012,0.031 0.028,0.057 0.051,0.079 0.023,0.021 0.052,0.039 0.082,0.051 0.03,0.014 0.062,0.02 0.096,0.02 0.046,0 0.084,-0.008 0.115,-0.027 C 0.196,0.453 0.219,0.434 0.233,0.415 0.243,0.403 0.254,0.389 0.263,0.376 0.27,0.362 0.277,0.347 0.283,0.329 0.288,0.311 0.29,0.289 0.292,0.263 0.295,0.238 0.297,0.207 0.297,0.169 0.297,0.13 0.295,0.096 0.292,0.072 0.292,0.047 0.289,0.025 0.283,0.009 0.275,-0.008 0.264,-0.022 0.25,-0.033 0.236,-0.047 0.219,-0.06 0.193,-0.072 0.221,-0.089 0.238,-0.104 0.254,-0.119 0.266,-0.132 0.277,-0.15 0.283,-0.168 0.29,-0.188 0.292,-0.209 0.292,-0.237 0.295,-0.262 0.297,-0.298 0.297,-0.339 0.297,-0.376 0.295,-0.408 0.292,-0.434 0.292,-0.457 0.29,-0.479 0.288,-0.496 0.283,-0.512 0.281,-0.526 0.275,-0.539 0.268,-0.55 0.263,-0.563 0.252,-0.577 0.231,-0.607 0.207,-0.631 0.172,-0.651 0.139,-0.672 0.1,-0.682 0.048,-0.682 c -0.028,0 -0.054,0.004 -0.084,0.014 -0.029,0.007 -0.054,0.023 -0.079,0.041 -0.025,0.02 -0.043,0.045 -0.06,0.077 -0.014,0.031 -0.023,0.071 -0.023,0.115 v 0.096 h 0.166 v -0.086 c 0,-0.027 0.007,-0.049 0.021,-0.066 0.015,-0.016 0.035,-0.026 0.059,-0.026 0.024,0 0.046,0.01 0.062,0.026 0.013,0.017 0.021,0.039 0.021,0.067 v 0.168 c 0,0.021 -0.003,0.039 -0.007,0.055 -0.001,0.013 -0.011,0.024 -0.02,0.033 C 0.097,-0.16 0.08,-0.154 0.065,-0.152 0.048,-0.15 0.024,-0.148 0,-0.148 Z"
         style="fill:#fffee6;fill-opacity:1;fill-rule:nonzero;stroke:none"
         transform="matrix(0.35277776,0,0,-0.35277776,187.18713,93.838466)"
         clip-path="url(#clipPath1949)" />
    </g>
  </g>
</svg>
